:SAMPLES-PER-SECOND 30
:FULLY-SPECIFIED
:DEGREES
524
root  -3.88919 40.9964 0.831502 169.984 -82.624 -168.549
RightUpLeg  2.30708 -0.7252 -1.10414
RightLeg  -5.76385 -13.44 2.05559
RightFoot  3.48975 -0.423356 3.43613
RightToes  -3.1126e-008 1.75238e-005 3.56266e-009
Spine  10.9064 1.18047 1.22745
Spine1  -16.0714 1.33163 -3.43644
HEad  5.78169 -13.2406 4.3255
LeftShoulder1  0.296114 2.12728 -14.5972
LeftArm  10.7426 58.2751 -44.0722
LeftForeArm  73.015 -78.7071 -54.728
LeftHand  -0.537817 -4.24753 6.75493
RightShoulder  -0.14052 -4.26806 10.6352
RightArm  -52.506 20.3928 3.63929
RightForeArm  12.0877 58.0724 17.2534
RightHand  -0.220207 8.04588 -2.265
LeftUpLeg  3.68247 1.73185 2.86506
LeftLeg  -3.57733 24.1531 -1.50634
LeftFoot  -0.259508 0.305391 -3.08459
LeftToes  4.78049e-008 1.46235e-008 1.34219e-009
525
root  -3.93408 40.9961 0.866021 169.84 -82.5305 -168.42
RightUpLeg  2.36224 -0.76834 -1.14516
RightLeg  -5.72367 -13.3115 2.05198
RightFoot  3.44778 -0.4327 3.50474
RightToes  -3.1126e-008 1.75238e-005 3.56266e-009
Spine  10.8618 1.34364 1.39897
Spine1  -16.006 1.50877 -3.63392
HEad  5.64643 -13.2428 4.39057
LeftShoulder1  0.333777 1.96025 -14.718
LeftArm  12.0834 58.6943 -42.6242
LeftForeArm  73.8931 -78.8552 -56.012
LeftHand  -0.498399 -3.82517 6.54548
RightShoulder  -0.162902 -4.40529 10.3585
RightArm  -54.6891 20.5336 2.63575
RightForeArm  10.3354 50.0922 12.6414
RightHand  -0.390048 8.02854 -3.77863
LeftUpLeg  3.84961 1.72573 2.81599
LeftLeg  -3.76561 24.3345 -1.58585
LeftFoot  -0.269186 0.2983 -2.98122
LeftToes  4.78049e-008 1.46235e-008 1.34219e-009
526
root  -3.96828 40.9959 0.898065 169.803 -82.6088 -168.361
RightUpLeg  2.48162 -0.824551 -1.22407
RightLeg  -5.90512 -13.3395 2.1154
RightFoot  3.49663 -0.437493 3.50354
RightToes  -3.1126e-008 1.75238e-005 3.56266e-009
Spine  10.8366 1.27804 1.70683
Spine1  -16.0065 1.47834 -4.11678
HEad  5.60726 -13.007 4.19407
LeftShoulder1  0.30675 2.06706 -14.4206
LeftArm  12.4634 59.1598 -42.0816
LeftForeArm  72.8827 -78.6879 -54.5794
LeftHand  -0.539213 -4.40782 6.67141
RightShoulder  -0.18374 -4.53268 10.1955
RightArm  -56.7365 20.9676 1.94067
RightForeArm  8.80214 42.6632 9.73904
RightHand  -0.48873 6.99834 -4.91142
LeftUpLeg  3.82586 1.67803 2.74266
LeftLeg  -3.68502 24.3221 -1.53341
LeftFoot  -0.320421 0.301246 -3.03395
LeftToes  4.78049e-008 1.46235e-008 1.34219e-009
527
root  -3.99898 40.9958 0.933249 169.968 -82.4922 -168.426
RightUpLeg  2.42777 -0.826834 -1.26045
RightLeg  -5.96689 -13.2477 2.10921
RightFoot  3.54647 -0.446011 3.60136
RightToes  -3.1126e-008 1.75238e-005 3.56266e-009
Spine  10.5879 1.28954 2.00131
Spine1  -15.8128 1.51926 -4.41021
HEad  5.4982 -12.4233 3.81731
LeftShoulder1  0.293711 2.1267 -14.3949
LeftArm  11.8252 59.29 -42.0077
LeftForeArm  71.1397 -78.4371 -52.8162
LeftHand  -0.572072 -4.36226 7.09045
RightShoulder  -0.211419 -4.7091 9.88378
RightArm  -60.0231 21.6986 2.04154
RightForeArm  10.9801 36.7841 7.70217
RightHand  -0.156595 7.64343 -1.75568
LeftUpLeg  3.75097 1.60283 2.66976
LeftLeg  -3.63386 24.5372 -1.48032
LeftFoot  -0.38645 0.306687 -3.1253
LeftToes  4.78049e-008 1.46235e-008 1.34219e-009
528
root  -4.00596 40.9957 0.962002 170.719 -82.3165 -169.1
RightUpLeg  2.29549 -0.857799 -1.35038
RightLeg  -5.91729 -13.0655 2.06039
RightFoot  3.54012 -0.446704 3.56424
RightToes  -3.1126e-008 1.75238e-005 3.56266e-009
Spine  10.5683 1.29415 2.13031
Spine1  -15.7855 1.53806 -4.55962
HEad  5.36411 -11.9373 3.59417
LeftShoulder1  0.266459 2.25193 -14.3437
LeftArm  10.8141 59.2616 -42.3409
LeftForeArm  69.9311 -78.2476 -51.5658
LeftHand  -0.620422 -4.32079 7.69504
RightShoulder  -0.225579 -4.77686 10.1003
RightArm  -58.9267 20.8548 1.27012
RightForeArm  10.5996 34.8183 7.1933
RightHand  -0.404292 7.30263 -4.04901
LeftUpLeg  3.72681 1.54457 2.56274
LeftLeg  -3.6904 24.7192 -1.53738
LeftFoot  -0.405567 0.301725 -3.05448
LeftToes  4.78049e-008 1.46235e-008 1.34219e-009
529
root  -4.0087 40.9957 0.987219 171.219 -82.1969 -169.504
RightUpLeg  2.14171 -0.857752 -1.41209
RightLeg  -5.84939 -12.8997 1.99917
RightFoot  3.5253 -0.448848 3.54592
RightToes  -3.1126e-008 1.75238e-005 3.56266e-009
Spine  10.4402 1.17893 1.75709
Spine1  -15.6697 1.38127 -3.89122
HEad  5.19194 -11.1688 3.2802
LeftShoulder1  0.196454 2.58329 -14.3972
LeftArm  9.4247 59.1591 -43.1857
LeftForeArm  70.1282 -78.2903 -51.8883
LeftHand  -0.629645 -4.38545 7.7594
RightShoulder  -0.214791 -4.71624 10.0824
RightArm  -58.8073 20.4122 1.52787
RightForeArm  10.369 35.0439 7.27429
RightHand  -0.291545 7.33296 -3.01635
LeftUpLeg  3.58197 1.49154 2.45788
LeftLeg  -3.59587 24.9719 -1.50317
LeftFoot  -0.481645 0.300364 -3.03931
LeftToes  4.78049e-008 1.46235e-008 1.34219e-009
530
root  -4.01437 40.9959 1.00761 171.368 -82.0135 -169.691
RightUpLeg  2.19355 -0.820679 -1.41733
RightLeg  -5.90092 -12.759 1.95178
RightFoot  3.55337 -0.458711 3.66216
RightToes  -3.1126e-008 1.75238e-005 3.56266e-009
Spine  10.3885 1.07571 1.50166
Spine1  -15.507 1.24641 -3.30122
HEad  5.22155 -10.3832 2.87852
LeftShoulder1  0.227901 2.44484 -14.6068
LeftArm  8.43048 58.6373 -43.6536
LeftForeArm  71.1498 -78.45 -52.9468
LeftHand  -0.641532 -4.15454 8.07667
RightShoulder  -0.223571 -4.7501 10.3275
RightArm  -58.3442 20.0877 2.18334
RightForeArm  10.6056 37.3219 7.90905
RightHand  -0.299569 7.20955 -3.11377
LeftUpLeg  3.69386 1.48253 2.42677
LeftLeg  -3.67849 25.1529 -1.54824
LeftFoot  -0.513095 0.301482 -3.06222
LeftToes  4.78049e-008 1.46235e-008 1.34219e-009
